# xmcd
#
# Track frame offsets:
#	150
#	15210
#	64855
#	99170
#	143867
#	197765
#
# Disc length: 3110 seconds
# Revision: 0
# Processed by: cddbd v1.5.2PL0 Copyright (c) Steve Scherf et al.
# Submitted via: dBpowerAMP V12.0
#
DISCID=440c2406
DTITLE=David Morales presents The Face feat. Juliet Roberts with James “ D Train” Williams and Sharon Bryant - Needin’ U’ II (I Needed U)
DYEAR=2001
DGENRE=House
TTITLE0=Needin’ U’ II (I Needed U) [Radio Mix]
TTITLE1=Needin’ U’ II (I Needed U) [Soul On Soul Mix]
TTITLE2=Needin’ U’ II (I Needed U) [Dark Face Dub]
TTITLE3=Needin’ U’ II (I Needed U) [2001 Anthem Mix]
TTITLE4=Needin’ U’ II (I Needed U) [Stereo Dub]
TTITLE5=Needin’ U’ [Original Mistake]
EXTD=
EXTT0=
EXTT1=
EXTT2=
EXTT3=
EXTT4=
EXTT5=
PLAYORDER=
